<svg width="22" height="22" viewBox="0 0 22 22" fill="none" xmlns="http://www.w3.org/2000/svg">
<path d="M0 11C0 4.92486 4.92486 0 11 0C17.0751 0 22 4.92486 22 11V18.8571C22 19.222 22 19.4045 21.9828 19.558C21.8391 20.8329 20.8329 21.8391 19.558 21.9828C19.4045 22 19.222 22 18.8571 22H11C4.92486 22 0 17.0751 0 11Z" fill="#515151"/>
<path d="M11 9.134V7.69922" stroke="white" stroke-width="2" stroke-linecap="round"/>
<path d="M13.3688 8.80078H8.63038C7.50882 8.80078 6.59961 9.75058 6.59961 10.9222V13.2794C6.59961 14.451 7.50882 15.4008 8.63038 15.4008H13.3688C14.4904 15.4008 15.3996 14.451 15.3996 13.2794V10.9222C15.3996 9.75058 14.4904 8.80078 13.3688 8.80078Z" fill="white"/>
<circle cx="8.8002" cy="12.1" r="1.1" fill="#515151"/>
<circle cx="13.1996" cy="12.1" r="1.1" fill="#515151"/>
</svg>
