<svg width="69" height="66" viewBox="0 0 69 66" fill="none" xmlns="http://www.w3.org/2000/svg">
<path d="M24.0225 10.3125C25.1657 10.3125 26.0925 11.2359 26.0925 12.375V13.072C27.1234 13.0625 28.222 13.0625 29.3911 13.0625H37.9739C39.1427 13.0625 40.2415 13.0625 41.2724 13.072V12.375C41.2724 11.2359 42.1992 10.3125 43.3424 10.3125C44.4855 10.3125 45.4123 11.2359 45.4123 12.375V13.2076C46.0386 13.2515 46.6287 13.3086 47.1837 13.383C49.668 13.7157 51.7598 14.4277 53.421 16.083C55.0823 17.7382 55.7969 19.8224 56.1308 22.2977C56.2056 22.8508 56.2627 23.4387 56.3069 24.0625H11.0581C11.1021 23.4387 11.1594 22.8508 11.2341 22.2977C11.5681 19.8224 12.2826 17.7382 13.9439 16.083C15.6052 14.4277 17.6969 13.7157 20.1812 13.383C20.7363 13.3086 21.3264 13.2515 21.9525 13.2076V12.375C21.9525 11.2359 22.8792 10.3125 24.0225 10.3125Z" fill="#04CB12"/>
<path fill-rule="evenodd" clip-rule="evenodd" d="M10.9121 31.4735C10.9121 30.3091 10.9121 29.2146 10.9216 28.1875H56.4426C56.452 29.2143 56.452 30.3089 56.452 31.4732V39.9734C56.452 42.46 56.4523 44.4656 56.3049 46.0834C56.1534 47.751 55.8324 49.208 55.0654 50.5312C54.1571 52.099 52.8505 53.4009 51.277 54.3059C49.9489 55.0699 48.4866 55.3897 46.813 55.5409C45.1895 55.6875 43.1767 55.6875 40.6811 55.6875H29.3908C25.6163 55.6875 22.5736 55.6875 20.1809 55.3671C17.6966 55.0344 15.6048 54.3224 13.9436 52.6672C12.2823 51.0117 11.5677 48.9277 11.2337 46.4524C10.912 44.0682 10.9121 41.0369 10.9121 37.276V31.4735ZM20.0034 43.1142C20.0034 41.9749 20.9301 41.0517 22.0734 41.0517H36.8102C37.9534 41.0517 38.8802 41.9749 38.8802 43.1142C38.8802 44.2533 37.9534 45.1767 36.8102 45.1767H22.0734C20.9301 45.1767 20.0034 44.2533 20.0034 43.1142ZM22.0734 33.2398C20.9301 33.2398 20.0034 34.163 20.0034 35.3023C20.0034 36.4414 20.9301 37.3648 22.0734 37.3648H30.3534C31.4966 37.3648 32.4234 36.4414 32.4234 35.3023C32.4234 34.163 31.4966 33.2398 30.3534 33.2398H22.0734Z" fill="#04CB12"/>
</svg>
