<svg width="105" height="113" viewBox="0 0 105 113" fill="none" xmlns="http://www.w3.org/2000/svg">
<path d="M30.0205 0C32.6383 0 34.7605 2.28057 34.7605 5.09375V6.8151C37.1212 6.7916 39.6367 6.7916 42.3139 6.79167H61.9672C64.6437 6.7916 67.1597 6.7916 69.5202 6.8151V5.09375C69.5202 2.28057 71.6425 0 74.2602 0C76.878 0 79.0002 2.28057 79.0002 5.09375V7.15006C80.4342 7.25839 81.7855 7.39938 83.0564 7.5831C88.745 8.40496 93.535 10.1633 97.339 14.2513C101.143 18.3393 102.779 23.4865 103.544 29.5998C103.715 30.9658 103.846 32.4178 103.947 33.9583H0.333984C0.434725 32.4178 0.565993 30.9658 0.736886 29.5998C1.50173 23.4865 3.13792 18.3393 6.94205 14.2513C10.7461 10.1633 15.5359 8.40496 21.2246 7.5831C22.4957 7.39938 23.8469 7.25839 25.2805 7.15006V5.09375C25.2805 2.28057 27.4026 0 30.0205 0Z" fill="#04CB12"/>
<path fill-rule="evenodd" clip-rule="evenodd" d="M6.28577e-06 52.2638C-5.69142e-05 49.3882 -5.60181e-05 46.6851 0.021748 44.1484H104.258C104.28 46.6844 104.28 49.3875 104.28 52.2631V73.2562C104.28 79.3972 104.28 84.3504 103.943 88.3459C103.596 92.4644 102.861 96.0626 101.105 99.3307C99.0247 103.203 96.0328 106.418 92.4297 108.653C89.3886 110.54 86.0402 111.33 82.2078 111.703C78.4904 112.065 73.8812 112.065 68.1666 112.065H42.3134C33.6704 112.065 26.7031 112.065 21.2241 111.274C15.5355 110.452 10.7457 108.694 6.94158 104.606C3.13745 100.517 1.50126 95.3705 0.736414 89.2573C-0.000245468 83.369 -0.000120114 75.8825 6.28577e-06 66.5942V52.2638ZM20.8176 81.0129C20.8176 78.1991 22.9398 75.9192 25.5576 75.9192H59.3028C61.9206 75.9192 64.0428 78.1991 64.0428 81.0129C64.0428 83.826 61.9206 86.1067 59.3028 86.1067H25.5576C22.9398 86.1067 20.8176 83.826 20.8176 81.0129ZM25.5576 56.6261C22.9398 56.6261 20.8176 58.9061 20.8176 61.7198C20.8176 64.5329 22.9398 66.8136 25.5576 66.8136H44.5178C47.1356 66.8136 49.2578 64.5329 49.2578 61.7198C49.2578 58.9061 47.1356 56.6261 44.5178 56.6261H25.5576Z" fill="#04CB12"/>
</svg>
