<svg width="36" height="36" viewBox="0 0 36 36" fill="none" xmlns="http://www.w3.org/2000/svg">
<rect width="36" height="36" rx="10" fill="#1B84FF" fill-opacity="0.1"/>
<path d="M18 14C19.8534 14 21.6242 14.5291 22.9639 15.4619L22.9648 15.4629L25.1807 16.9932C25.2961 17.073 25.378 17.1619 25.4287 17.249C25.4789 17.3354 25.5 17.4206 25.5 17.5C25.5 17.5794 25.4789 17.6646 25.4287 17.751C25.3779 17.8384 25.2965 17.9273 25.1816 18.0068L22.9648 19.5381L22.9639 19.5391C21.6241 20.4717 19.8533 21 18 21C16.1467 21 14.3759 20.4717 13.0361 19.5391L13.0352 19.5381L10.8184 18.0068H10.8174C10.7029 17.9275 10.6221 17.8382 10.5713 17.751C10.521 17.6646 10.5 17.5794 10.5 17.5C10.5 17.4206 10.5211 17.3354 10.5713 17.249C10.6094 17.1836 10.6648 17.1174 10.7383 17.0547L10.8184 16.9932L13.0352 15.4629L13.0361 15.4619C14.3758 14.5291 16.1466 14 18 14Z" stroke="#1B84FF"/>
<path d="M19.1504 14.5059C19.4946 14.5178 19.7586 14.5513 19.959 14.6201C20.1466 14.6846 20.2623 14.774 20.3408 14.8994C20.4257 15.0351 20.5 15.2663 20.5 15.6699C20.4999 17.2834 19.3328 18.5 18 18.5C16.6672 18.5 15.5001 17.2834 15.5 15.6699C15.5 15.2663 15.5743 15.0351 15.6592 14.8994C15.7377 14.774 15.8534 14.6846 16.041 14.6201C16.2414 14.5513 16.5054 14.5178 16.8496 14.5059C17.1977 14.4938 17.5656 14.5049 18 14.5049C18.4344 14.5049 18.8023 14.4938 19.1504 14.5059Z" fill="#1B84FF" stroke="#1B84FF"/>
</svg>
