<svg width="36" height="36" viewBox="0 0 36 36" fill="none" xmlns="http://www.w3.org/2000/svg">
<rect width="36" height="36" rx="10" fill="#515151" fill-opacity="0.1"/>
<path d="M24 18.5C23.2083 17.2708 22.2161 16.3516 21.0234 15.7422C21.3411 16.2839 21.5 16.8698 21.5 17.5C21.5 18.4635 21.1576 19.2878 20.4727 19.9727C19.7878 20.6576 18.9635 21 18 21C17.0365 21 16.2122 20.6576 15.5273 19.9727C14.8424 19.2878 14.5 18.4635 14.5 17.5C14.5 16.8698 14.6589 16.2839 14.9766 15.7422C13.7839 16.3516 12.7917 17.2708 12 18.5C12.6927 19.5677 13.5612 20.418 14.6055 21.0508C15.6497 21.6836 16.7812 22 18 22C19.2188 22 20.3503 21.6836 21.3945 21.0508C22.4388 20.418 23.3073 19.5677 24 18.5ZM18.375 15.5C18.375 15.3958 18.3385 15.3073 18.2656 15.2344C18.1927 15.1615 18.1042 15.125 18 15.125C17.349 15.125 16.7904 15.3581 16.3242 15.8242C15.8581 16.2904 15.625 16.849 15.625 17.5C15.625 17.6042 15.6615 17.6927 15.7344 17.7656C15.8073 17.8385 15.8958 17.875 16 17.875C16.1042 17.875 16.1927 17.8385 16.2656 17.7656C16.3385 17.6927 16.375 17.6042 16.375 17.5C16.375 17.0521 16.5339 16.6693 16.8516 16.3516C17.1693 16.0339 17.5521 15.875 18 15.875C18.1042 15.875 18.1927 15.8385 18.2656 15.7656C18.3385 15.6927 18.375 15.6042 18.375 15.5ZM25 18.5C25 18.6771 24.9479 18.8568 24.8438 19.0391C24.1146 20.237 23.1341 21.1966 21.9023 21.918C20.6706 22.6393 19.3698 23 18 23C16.6302 23 15.3294 22.638 14.0977 21.9141C12.8659 21.1901 11.8854 20.2318 11.1562 19.0391C11.0521 18.8568 11 18.6771 11 18.5C11 18.3229 11.0521 18.1432 11.1562 17.9609C11.8854 16.7682 12.8659 15.8099 14.0977 15.0859C15.3294 14.362 16.6302 14 18 14C19.3698 14 20.6706 14.362 21.9023 15.0859C23.1341 15.8099 24.1146 16.7682 24.8438 17.9609C24.9479 18.1432 25 18.3229 25 18.5Z" fill="#515151"/>
</svg>
