<svg width="15" height="16" viewBox="0 0 15 16" fill="none" xmlns="http://www.w3.org/2000/svg">
<path d="M7.5 0.5C7.76905 0.500049 8.03499 0.594026 8.25586 0.774414L13.9902 5.45703C14.1452 5.58356 14.274 5.74949 14.3633 5.94238C14.4527 6.13564 14.5 6.35005 14.5 6.56738V14.1152C14.5 14.3001 14.4649 14.4838 14.3984 14.6553C14.3486 14.7838 14.2823 14.9023 14.2021 15.0068L14.1182 15.1064C13.9995 15.2331 13.8597 15.3323 13.708 15.3994C13.5564 15.4664 13.3952 15.5 13.2344 15.5H10.1426V10.793C10.1425 10.4474 10.0391 10.0979 9.83203 9.82324C9.62306 9.54625 9.30382 9.3457 8.92773 9.3457H6.07031C5.69501 9.34608 5.37602 9.54617 5.16699 9.82324H5.16602C4.95867 10.0986 4.85751 10.4489 4.85742 10.793V15.5H1.76465C1.60379 15.5 1.44247 15.4664 1.29102 15.3994C1.17778 15.3493 1.07109 15.2808 0.974609 15.1963L0.881836 15.1064C0.762627 14.9791 0.666618 14.8255 0.600586 14.6553C0.534605 14.4849 0.49998 14.3012 0.5 14.1152V6.56738C0.500083 6.17909 0.648527 5.81728 0.896484 5.56055L1.00879 5.45703L6.74414 0.774414C6.96516 0.594003 7.23115 0.5 7.5 0.5Z" fill="#515151" stroke="#515151"/>
</svg>
