<svg width="16" height="13" viewBox="0 0 16 13" fill="none" xmlns="http://www.w3.org/2000/svg">
<path d="M10.8574 0.5C11.8015 0.50009 12.6441 0.956732 13.1826 1.67188L13.332 1.87109H14.2861C14.6053 1.87121 14.9131 1.99996 15.1416 2.23242C15.3698 2.46466 15.5 2.78217 15.5 3.11523V11.2559C15.4999 11.5889 15.3698 11.9064 15.1416 12.1387C14.9131 12.3711 14.6053 12.4999 14.2861 12.5H1.71387C1.39542 12.4999 1.08794 12.3711 0.859375 12.1387L0.858398 12.1377C0.63006 11.9056 0.500052 11.5887 0.5 11.2559V3.11523C0.500041 2.78237 0.630061 2.4655 0.858398 2.2334L0.859375 2.23242C1.08795 2.00002 1.39541 1.87121 1.71387 1.87109H8.38281L8.53223 1.67188C9.07013 0.956896 9.91376 0.5 10.8574 0.5ZM11.8301 6.30859C11.5271 6.41807 11.1995 6.47751 10.8574 6.47754C10.5153 6.47754 10.1877 6.41825 9.88379 6.30859L9.21387 6.06641V9.78809L9.875 9.56445L10.8369 9.23828C10.8496 9.2341 10.8638 9.23381 10.8779 9.23828L11.8398 9.56445L12.5 9.78809V6.06641L11.8301 6.30859ZM10.8574 0.663086C9.31219 0.663086 8.0715 1.93663 8.07129 3.48828C8.07129 5.04011 9.31206 6.31445 10.8574 6.31445C12.4033 6.3143 13.6426 5.03994 13.6426 3.48828C13.6424 1.93681 12.4032 0.663239 10.8574 0.663086Z" fill="#1B84FF" fill-opacity="0.2" stroke="#1B84FF"/>
</svg>
