<svg width="16" height="13" viewBox="0 0 16 13" fill="none" xmlns="http://www.w3.org/2000/svg">
<path d="M8.00446 6.02585L15.9048 0.759385C15.8116 0.534637 15.6539 0.34255 15.4516 0.20739C15.2493 0.0722295 15.0115 6.04246e-05 14.7682 0H1.22969C1.01115 0.000567764 0.796728 0.0595822 0.608668 0.170925C0.420608 0.282268 0.265753 0.441885 0.160156 0.633231L8.00446 6.02585Z" fill="#1B84FF"/>
<path d="M8.34154 7.28086C8.23922 7.34905 8.11882 7.38503 7.99586 7.38415C7.8729 7.38327 7.75303 7.34558 7.65169 7.27593L0 2.01562V11.0765C0 11.403 0.12967 11.716 0.360484 11.9468C0.591298 12.1776 0.904349 12.3073 1.23077 12.3073H14.7692C15.0957 12.3073 15.4087 12.1776 15.6395 11.9468C15.8703 11.716 16 11.403 16 11.0765V2.17501L8.34154 7.28086Z" fill="#1B84FF"/>
</svg>
