<svg width="53" height="45" viewBox="0 0 53 45" fill="none" xmlns="http://www.w3.org/2000/svg">
<path fill-rule="evenodd" clip-rule="evenodd" d="M0.722621 16.5351C0.724464 15.381 0.728148 14.2434 0.729992 13.5317C0.755804 10.7107 3.1914 8.08156 6.19303 8.03546C9.28868 8.00596 43.7779 8.0244 46.8625 8.03546C49.6908 8.06127 52.3126 10.4969 52.3587 13.4985C52.3734 14.979 52.3826 18.3051 52.3882 19.7875C52.3882 19.7875 52.3402 34.5818 52.3236 39.4087C52.2997 42.2315 49.8254 44.8662 46.8274 44.9123C33.2925 45.0395 19.7556 44.9547 6.21884 44.9123C3.3979 44.8865 0.776085 42.4509 0.729992 39.4493C0.676523 33.6562 0.682056 22.3301 0.700494 16.5351H0.722621Z" fill="#0266DA"/>
<path fill-rule="evenodd" clip-rule="evenodd" d="M52.3808 19.7422C52.3845 20.4815 52.3864 21.1527 52.3882 21.6302L52.3808 23.8648L36.5412 31.7856C36.5135 31.7948 36.4859 31.8022 36.46 31.8114C36.3365 31.8667 36.2075 31.9091 36.0747 31.9386C35.9309 31.9773 35.7981 31.9958 35.6064 31.9792H17.2814C16.8591 31.9312 16.8573 31.9294 16.4572 31.7856L0.689453 23.9017C0.691297 22.4119 0.693141 21.0144 0.696828 19.7828L17.7165 28.2935H20.967C20.9689 27.8178 20.9689 27.344 20.9689 26.8683C20.9818 24.7424 22.8145 22.8047 25.0288 22.7623C26.0097 22.7567 26.9887 22.7567 27.9696 22.7623C30.0788 22.8028 31.9871 24.6078 32.0295 26.8222C32.0332 27.3126 32.035 27.8031 32.035 28.2935H35.2819L52.3808 19.7422Z" fill="#0A55AB"/>
<path fill-rule="evenodd" clip-rule="evenodd" d="M0.696119 19.8189C0.692432 21.0505 0.681369 22.3301 0.699806 16.5351H0.721931C0.723775 15.381 0.727463 14.2434 0.729306 13.5317C0.755119 10.7107 3.19071 8.08156 6.19234 8.03546C9.28799 8.00596 43.7772 8.0244 46.8618 8.03546C49.6901 8.06127 52.3119 10.4969 52.358 13.4985C52.3727 14.979 52.382 18.3051 52.3875 19.7875L52.3857 20.8219C52.3838 20.5011 52.382 20.1489 52.3801 19.7783L35.2812 28.3278H17.7158L0.696119 19.8189Z" fill="#1B84FF"/>
<path fill-rule="evenodd" clip-rule="evenodd" d="M15.4375 6.56574C15.4375 6.45143 15.4375 6.33712 15.4393 6.2228C15.4652 3.37605 17.921 0.756086 20.9337 0.72843C24.6433 0.715523 28.3548 0.715523 32.0644 0.72843C34.9112 0.754242 37.5496 3.19352 37.5607 6.25599V8.07024H37.5625V11.7043H37.5607V13.6328C37.5146 15.0562 35.5897 16.0426 34.4539 14.9751C34.1442 14.6856 33.9414 14.2837 33.8879 13.8633C33.875 13.7601 33.8768 13.7342 33.8732 13.6328V13.6255H33.875V12.5432C33.8768 12.2611 33.8768 11.979 33.8787 11.6951H33.875V8.05734H33.8898C33.8879 7.50237 33.8824 6.94555 33.875 6.39059V6.25046H33.8732V6.22096C33.851 5.27327 33.0269 4.4233 32.0423 4.41409C28.3382 4.40302 24.6341 4.35693 20.9319 4.41593C19.986 4.43621 19.1342 5.25115 19.125 6.24677V6.25046V13.6255V13.6328C19.125 13.6328 19.0181 14.7133 18.2695 15.189C17.2425 15.8398 15.6163 15.1576 15.4522 13.8633C15.4393 13.7601 15.4412 13.7342 15.4375 13.6328C15.4375 13.0152 15.4375 12.3994 15.4375 11.7817V6.56574Z" fill="#0A55AB"/>
<path fill-rule="evenodd" clip-rule="evenodd" d="M20.9688 25.251V25.0242C20.9817 22.8984 22.8143 20.9606 25.0287 20.9182C26.0096 20.9127 26.9886 20.9127 27.9695 20.9182C30.0787 20.9588 31.987 22.7638 32.0294 24.9781L32.0312 25.3395V30.1351C32.0294 30.6108 32.0294 31.0846 32.0294 31.5585C32.0165 33.6714 30.2188 35.6221 27.9695 35.6664C26.5295 35.6756 25.0139 35.8729 23.762 35.4488C22.169 34.9104 21.0019 33.3285 20.9688 31.6064V31.5401V25.251Z" fill="#FFC400"/>
<path fill-rule="evenodd" clip-rule="evenodd" d="M28.4103 28.0336C28.4139 27.0435 28.4084 26.0552 28.3771 25.067C28.3679 24.8494 28.1761 24.6632 27.9585 24.6595C27.0127 24.6522 26.0668 24.6595 25.1228 24.6595C24.8942 24.6595 24.6951 24.8531 24.6914 25.0781C24.684 26.0811 24.6693 27.0859 24.6619 28.0889C24.6914 28.2862 24.6914 28.4872 24.6582 28.6826C24.6545 29.6635 24.6601 30.6443 24.6914 31.6252C24.7006 31.8409 24.8924 32.029 25.1099 32.0327C26.0632 32.0382 27.0164 32.0622 27.9696 32.0327C28.1872 32.0216 28.3734 31.8317 28.3771 31.6123C28.3844 30.5669 28.401 29.5215 28.4084 28.4761C28.39 28.3286 28.39 28.1811 28.4103 28.0336Z" fill="#FF9800"/>
</svg>
