<svg width="88" height="79" viewBox="0 0 88 79" fill="none" xmlns="http://www.w3.org/2000/svg">
<rect x="0.5" y="0.5" width="87" height="78" rx="19.5" fill="#1B84FF" fill-opacity="0.1"/>
<rect x="0.5" y="0.5" width="87" height="78" rx="19.5" stroke="#1B84FF"/>
<g clip-path="url(#clip0_2030_2796)">
<path fill-rule="evenodd" clip-rule="evenodd" d="M23.0286 31.8889C23.0301 30.9499 23.0331 30.0244 23.0346 29.4454C23.0556 27.1504 25.0371 25.0114 27.4791 24.9739C29.9976 24.9499 58.0566 24.9649 60.5661 24.9739C62.8671 24.9949 65.0001 26.9764 65.0376 29.4184C65.0496 30.6229 65.0571 33.3289 65.0616 34.5349C65.0616 34.5349 65.0226 46.5709 65.0091 50.4979C64.9896 52.7944 62.9766 54.9379 60.5376 54.9754C49.5261 55.0789 38.5131 55.0099 27.5001 54.9754C25.2051 54.9544 23.0721 52.9729 23.0346 50.5309C22.9911 45.8179 22.9956 36.6034 23.0106 31.8889H23.0286Z" fill="#0266DA"/>
<path fill-rule="evenodd" clip-rule="evenodd" d="M65.0555 34.5C65.0585 35.1015 65.06 35.6475 65.0615 36.036L65.0555 37.854L52.169 44.298C52.1465 44.3055 52.124 44.3115 52.103 44.319C52.0025 44.364 51.8975 44.3985 51.7895 44.4225C51.6725 44.454 51.5645 44.469 51.4085 44.4555H36.5C36.1565 44.4165 36.155 44.415 35.8295 44.298L23.0015 37.884C23.003 36.672 23.0045 35.535 23.0075 34.533L36.854 41.457H39.4985C39.5 41.07 39.5 40.6845 39.5 40.2975C39.5105 38.568 41.0015 36.9915 42.803 36.957C43.601 36.9525 44.3975 36.9525 45.1955 36.957C46.9115 36.99 48.464 38.4585 48.4985 40.26C48.5015 40.659 48.503 41.058 48.503 41.457H51.1445L65.0555 34.5Z" fill="#0A55AB"/>
<path fill-rule="evenodd" clip-rule="evenodd" d="M23.0074 34.5604C23.0044 35.5624 22.9954 36.6034 23.0104 31.8889H23.0284C23.0299 30.9499 23.0329 30.0244 23.0344 29.4454C23.0554 27.1504 25.0369 25.0114 27.4789 24.9739C29.9974 24.9499 58.0564 24.9649 60.5659 24.9739C62.8669 24.9949 64.9999 26.9764 65.0374 29.4184C65.0494 30.6229 65.0569 33.3289 65.0614 34.5349L65.0599 35.3764C65.0584 35.1154 65.0569 34.8289 65.0554 34.5274L51.1444 41.4829H36.8539L23.0074 34.5604Z" fill="#1B84FF"/>
<path fill-rule="evenodd" clip-rule="evenodd" d="M35 23.7803C35 23.6873 35 23.5943 35.0015 23.5013C35.0225 21.1853 37.0205 19.0538 39.4715 19.0313C42.4895 19.0208 45.509 19.0208 48.527 19.0313C50.843 19.0523 52.9895 21.0368 52.9985 23.5283V25.0043H53V27.9608H52.9985V29.5298C52.961 30.6878 51.395 31.4903 50.471 30.6218C50.219 30.3863 50.054 30.0593 50.0105 29.7173C50 29.6333 50.0015 29.6123 49.9985 29.5298V29.5238H50V28.6433C50.0015 28.4138 50.0015 28.1843 50.003 27.9533H50V24.9938H50.012C50.0105 24.5423 50.006 24.0893 50 23.6378V23.5238H49.9985V23.4998C49.9805 22.7288 49.31 22.0373 48.509 22.0298C45.4955 22.0208 42.482 21.9833 39.47 22.0313C38.7005 22.0478 38.0075 22.7108 38 23.5208V23.5238V29.5238V29.5298C38 29.5298 37.913 30.4088 37.304 30.7958C36.4685 31.3253 35.1455 30.7703 35.012 29.7173C35.0015 29.6333 35.003 29.6123 35 29.5298C35 29.0273 35 28.5263 35 28.0238V23.7803Z" fill="#0A55AB"/>
<path fill-rule="evenodd" clip-rule="evenodd" d="M39.5 38.9815V38.797C39.5105 37.0675 41.0015 35.491 42.803 35.4565C43.601 35.452 44.3975 35.452 45.1955 35.4565C46.9115 35.4895 48.464 36.958 48.4985 38.7595L48.5 39.0535V42.955C48.4985 43.342 48.4985 43.7275 48.4985 44.113C48.488 45.832 47.0255 47.419 45.1955 47.455C44.024 47.4625 42.791 47.623 41.7725 47.278C40.4765 46.84 39.527 45.553 39.5 44.152V44.098V38.9815Z" fill="#FFC400"/>
<path fill-rule="evenodd" clip-rule="evenodd" d="M45.5543 41.2477C45.5573 40.4422 45.5528 39.6382 45.5273 38.8342C45.5198 38.6572 45.3638 38.5057 45.1868 38.5027C44.4173 38.4967 43.6478 38.5027 42.8798 38.5027C42.6938 38.5027 42.5318 38.6602 42.5288 38.8432C42.5228 39.6592 42.5108 40.4767 42.5048 41.2927C42.5288 41.4532 42.5288 41.6167 42.5018 41.7757C42.4988 42.5737 42.5033 43.3717 42.5288 44.1697C42.5363 44.3452 42.6923 44.4982 42.8693 44.5012C43.6448 44.5057 44.4203 44.5252 45.1958 44.5012C45.3728 44.4922 45.5243 44.3377 45.5273 44.1592C45.5333 43.3087 45.5468 42.4582 45.5528 41.6077C45.5378 41.4877 45.5378 41.3677 45.5543 41.2477Z" fill="#FF9800"/>
</g>
<defs>
<clipPath id="clip0_2030_2796">
<rect width="48" height="48" fill="white" transform="translate(20 16)"/>
</clipPath>
</defs>
</svg>
