<svg width="32" height="32" viewBox="0 0 32 32" fill="none" xmlns="http://www.w3.org/2000/svg">
<path d="M16 22C17.8565 22 19.637 21.2625 20.9497 19.9497C22.2625 18.637 23 16.8565 23 15V9C23 7.14348 22.2625 5.36301 20.9497 4.05025C19.637 2.7375 17.8565 2 16 2C14.1435 2 12.363 2.7375 11.0502 4.05025C9.73747 5.36301 8.99997 7.14348 8.99997 9V15C8.99997 16.8565 9.73747 18.637 11.0502 19.9497C12.363 21.2625 14.1435 22 16 22ZM11 9C11 7.67392 11.5268 6.40215 12.4644 5.46447C13.4021 4.52678 14.6739 4 16 4C17.3261 4 18.5978 4.52678 19.5355 5.46447C20.4732 6.40215 21 7.67392 21 9V15C21 16.3261 20.4732 17.5979 19.5355 18.5355C18.5978 19.4732 17.3261 20 16 20C14.6739 20 13.4021 19.4732 12.4644 18.5355C11.5268 17.5979 11 16.3261 11 15V9ZM17 26V28H20V30H12V28H15V26C12.2592 25.7498 9.71183 24.4814 7.86054 22.4449C6.00925 20.4085 4.98858 17.7521 4.99997 15H6.99997C6.99997 17.3869 7.94818 19.6761 9.63601 21.364C11.3238 23.0518 13.613 24 16 24C18.3869 24 20.6761 23.0518 22.3639 21.364C24.0518 19.6761 25 17.3869 25 15H27C27.0114 17.7521 25.9907 20.4085 24.1394 22.4449C22.2881 24.4814 19.7407 25.7498 17 26ZM19 11H13V9H19V11ZM19 15H13V13H19V15Z" fill="#1B84FF"/>
<path d="M2.3418 1.63672L29.3418 28.6367" stroke="#1B84FF" stroke-width="2" stroke-linecap="round"/>
</svg>
