<svg width="32" height="32" viewBox="0 0 32 32" fill="none" xmlns="http://www.w3.org/2000/svg">
<path d="M16.0001 22C17.8566 22 19.6371 21.2625 20.9498 19.9497C22.2626 18.637 23.0001 16.8565 23.0001 15V9C23.0001 7.14348 22.2626 5.36301 20.9498 4.05025C19.6371 2.7375 17.8566 2 16.0001 2C14.1436 2 12.3631 2.7375 11.0503 4.05025C9.73759 5.36301 9.00009 7.14348 9.00009 9V15C9.00009 16.8565 9.73759 18.637 11.0503 19.9497C12.3631 21.2625 14.1436 22 16.0001 22ZM11.0001 9C11.0001 7.67392 11.5269 6.40215 12.4646 5.46447C13.4022 4.52678 14.674 4 16.0001 4C17.3262 4 18.5979 4.52678 19.5356 5.46447C20.4733 6.40215 21.0001 7.67392 21.0001 9V15C21.0001 16.3261 20.4733 17.5979 19.5356 18.5355C18.5979 19.4732 17.3262 20 16.0001 20C14.674 20 13.4022 19.4732 12.4646 18.5355C11.5269 17.5979 11.0001 16.3261 11.0001 15V9ZM17.0001 26V28H20.0001V30H12.0001V28H15.0001V26C12.2594 25.7498 9.71195 24.4814 7.86066 22.4449C6.00937 20.4085 4.9887 17.7521 5.00009 15H7.00009C7.00009 17.3869 7.94831 19.6761 9.63613 21.364C11.324 23.0518 13.6131 24 16.0001 24C18.387 24 20.6762 23.0518 22.3641 21.364C24.0519 19.6761 25.0001 17.3869 25.0001 15H27.0001C27.0115 17.7521 25.9908 20.4085 24.1395 22.4449C22.2882 24.4814 19.7408 25.7498 17.0001 26ZM19.0001 11H13.0001V9H19.0001V11ZM19.0001 15H13.0001V13H19.0001V15Z" fill="white"/>
<path d="M2.3418 1.63672L29.3418 28.6367" stroke="white" stroke-width="2" stroke-linecap="round"/>
</svg>
