<svg width="18" height="18" viewBox="0 0 18 18" fill="none" xmlns="http://www.w3.org/2000/svg">
<path d="M14.3784 6.35135C14.3784 4.93208 13.8146 3.57095 12.811 2.56737C11.8074 1.5638 10.4463 1 9.02703 1C7.60776 1 6.24662 1.5638 5.24305 2.56737C4.23948 3.57095 3.67568 4.93208 3.67568 6.35135C3.67568 12.5946 1 14.3784 1 14.3784H17.0541C17.0541 14.3784 14.3784 12.5946 14.3784 6.35135Z" fill="#515151" fill-opacity="0.2" stroke="#515151" stroke-linecap="round" stroke-linejoin="round"/>
<mask id="path-2-inside-1_2195_2240" fill="white">
<path d="M12.5801 13.9336C12.58 15.9038 10.9829 17.501 9.0127 17.501C7.0425 17.5009 5.44541 15.9038 5.44531 13.9336H12.5801Z"/>
</mask>
<path d="M12.5801 13.9336C12.58 15.9038 10.9829 17.501 9.0127 17.501C7.0425 17.5009 5.44541 15.9038 5.44531 13.9336H12.5801Z" fill="#D9D9D9"/>
<path d="M12.5801 13.9336L13.5801 13.9336L13.5801 12.9336H12.5801V13.9336ZM9.0127 17.501L9.01266 18.501H9.0127V17.501ZM5.44531 13.9336V12.9336H4.44526L4.44531 13.9336L5.44531 13.9336ZM12.5801 13.9336L11.5801 13.9335C11.58 15.3516 10.4306 16.501 9.0127 16.501V17.501V18.501C11.5353 18.501 13.58 16.4561 13.5801 13.9336L12.5801 13.9336ZM9.0127 17.501L9.01273 16.501C7.59481 16.5009 6.44538 15.3515 6.44531 13.9335L5.44531 13.9336L4.44531 13.9336C4.44544 16.4561 6.49019 18.5009 9.01266 18.501L9.0127 17.501ZM5.44531 13.9336V14.9336H12.5801V13.9336V12.9336H5.44531V13.9336Z" fill="#515151" mask="url(#path-2-inside-1_2195_2240)"/>
</svg>
