<svg width="16" height="15" viewBox="0 0 16 15" fill="none" xmlns="http://www.w3.org/2000/svg">
<path d="M13.6004 7.2H2.40039V5.6C2.40039 4.11479 2.99039 2.69041 4.04059 1.6402C5.0908 0.589998 6.51518 0 8.00039 0C9.4856 0 10.91 0.589998 11.9602 1.6402C13.0104 2.69041 13.6004 4.11479 13.6004 5.6V7.2ZM4.00039 5.6H12.0004C12.0004 4.53913 11.579 3.52172 10.8288 2.77157C10.0787 2.02143 9.06126 1.6 8.00039 1.6C6.93953 1.6 5.92211 2.02143 5.17196 2.77157C4.42182 3.52172 4.00039 4.53913 4.00039 5.6Z" fill="#1B84FF"/>
<path d="M13.6 6.39844H2.4C1.76348 6.39844 1.15303 6.65129 0.702944 7.10138C0.252856 7.55147 0 8.16192 0 8.79844V11.9984C0 12.635 0.252856 13.2454 0.702944 13.6955C1.15303 14.1456 1.76348 14.3984 2.4 14.3984H13.6C14.2365 14.3984 14.847 14.1456 15.2971 13.6955C15.7471 13.2454 16 12.635 16 11.9984V8.79844C16 8.16192 15.7471 7.55147 15.2971 7.10138C14.847 6.65129 14.2365 6.39844 13.6 6.39844ZM3.2 11.1984C3.04177 11.1984 2.8871 11.1515 2.75554 11.0636C2.62398 10.9757 2.52145 10.8508 2.4609 10.7046C2.40035 10.5584 2.3845 10.3976 2.41537 10.2424C2.44624 10.0872 2.52243 9.94463 2.63431 9.83275C2.7462 9.72087 2.88874 9.64468 3.04393 9.61381C3.19911 9.58294 3.35997 9.59878 3.50615 9.65933C3.65233 9.71988 3.77727 9.82242 3.86518 9.95398C3.95308 10.0855 4 10.2402 4 10.3984C4 10.6106 3.91571 10.8141 3.76569 10.9641C3.61566 11.1142 3.41217 11.1984 3.2 11.1984ZM6.4 11.1984C6.24178 11.1984 6.0871 11.1515 5.95554 11.0636C5.82398 10.9757 5.72145 10.8508 5.6609 10.7046C5.60035 10.5584 5.5845 10.3976 5.61537 10.2424C5.64624 10.0872 5.72243 9.94463 5.83431 9.83275C5.9462 9.72087 6.08874 9.64468 6.24393 9.61381C6.39911 9.58294 6.55997 9.59878 6.70615 9.65933C6.85233 9.71988 6.97727 9.82242 7.06518 9.95398C7.15308 10.0855 7.2 10.2402 7.2 10.3984C7.2 10.6106 7.11571 10.8141 6.96569 10.9641C6.81566 11.1142 6.61217 11.1984 6.4 11.1984ZM9.6 11.1984C9.44178 11.1984 9.2871 11.1515 9.15554 11.0636C9.02398 10.9757 8.92145 10.8508 8.8609 10.7046C8.80035 10.5584 8.7845 10.3976 8.81537 10.2424C8.84624 10.0872 8.92243 9.94463 9.03432 9.83275C9.1462 9.72087 9.28874 9.64468 9.44393 9.61381C9.59911 9.58294 9.75997 9.59878 9.90615 9.65933C10.0523 9.71988 10.1773 9.82242 10.2652 9.95398C10.3531 10.0855 10.4 10.2402 10.4 10.3984C10.4 10.6106 10.3157 10.8141 10.1657 10.9641C10.0157 11.1142 9.81217 11.1984 9.6 11.1984ZM12.8 11.1984C12.6418 11.1984 12.4871 11.1515 12.3555 11.0636C12.224 10.9757 12.1214 10.8508 12.0609 10.7046C12.0003 10.5584 11.9845 10.3976 12.0154 10.2424C12.0462 10.0872 12.1224 9.94463 12.2343 9.83275C12.3462 9.72087 12.4887 9.64468 12.6439 9.61381C12.7991 9.58294 12.96 9.59878 13.1061 9.65933C13.2523 9.71988 13.3773 9.82242 13.4652 9.95398C13.5531 10.0855 13.6 10.2402 13.6 10.3984C13.6 10.6106 13.5157 10.8141 13.3657 10.9641C13.2157 11.1142 13.0122 11.1984 12.8 11.1984Z" fill="#1B84FF"/>
</svg>
