<svg width="16" height="11" viewBox="0 0 16 11" fill="none" xmlns="http://www.w3.org/2000/svg">
<path d="M3.75 0.5C5.40329 0.5 6.35612 1.31215 6.91504 1.79102V1.79199L7 1.86426V9.9707C6.85064 9.87544 6.68388 9.78008 6.49805 9.69043C5.83317 9.36971 4.94617 9.125 3.75 9.125C2.65363 9.11991 1.56283 9.2734 0.517578 9.58008L0.511719 9.58203C0.508341 9.58302 0.504257 9.58203 0.5 9.58203V1.40625C0.776112 1.1795 1.25353 0.95036 1.85156 0.777344C2.45205 0.603639 3.12789 0.5 3.75 0.5ZM12.25 0.5C12.8722 0.5 13.548 0.603625 14.1484 0.777344C14.7464 0.950365 15.2239 1.17952 15.5 1.40625V9.58203C15.4957 9.58201 15.4916 9.58305 15.4883 9.58203L15.4824 9.58008L15.0879 9.47266C14.164 9.23797 13.2092 9.12055 12.25 9.125C11.0538 9.125 10.1668 9.36971 9.50195 9.69043C9.31612 9.78008 9.14936 9.87544 9 9.9707V1.86426C9.02841 1.84012 9.05741 1.81556 9.08594 1.79102L9.08496 1.79004C9.64374 1.31119 10.5974 0.5 12.25 0.5Z" fill="#515151" fill-opacity="0.2" stroke="#515151"/>
</svg>
