<svg width="21" height="21" viewBox="0 0 21 21" fill="none" xmlns="http://www.w3.org/2000/svg">
<path d="M17.3091 13.4091C17.1911 13.6764 17.1559 13.973 17.208 14.2605C17.2602 14.5481 17.3973 14.8134 17.6016 15.0223L17.6548 15.0755C17.8196 15.2401 17.9504 15.4356 18.0396 15.6508C18.1288 15.866 18.1747 16.0967 18.1747 16.3297C18.1747 16.5626 18.1288 16.7933 18.0396 17.0085C17.9504 17.2237 17.8196 17.4192 17.6548 17.5839C17.4901 17.7487 17.2946 17.8794 17.0794 17.9687C16.8642 18.0579 16.6335 18.1038 16.4006 18.1038C16.1676 18.1038 15.9369 18.0579 15.7217 17.9687C15.5065 17.8794 15.311 17.7487 15.1464 17.5839L15.0932 17.5307C14.8843 17.3263 14.619 17.1893 14.3314 17.1371C14.0439 17.085 13.7473 17.1202 13.48 17.2382C13.2178 17.3505 12.9943 17.5371 12.8368 17.7749C12.6793 18.0127 12.5948 18.2914 12.5936 18.5766V18.7273C12.5936 19.1974 12.4069 19.6483 12.0744 19.9808C11.742 20.3132 11.2911 20.5 10.8209 20.5C10.3508 20.5 9.89985 20.3132 9.5674 19.9808C9.23495 19.6483 9.04818 19.1974 9.04818 18.7273V18.6475C9.04132 18.3541 8.94636 18.0696 8.77564 17.8309C8.60491 17.5922 8.36633 17.4104 8.09091 17.3091C7.82357 17.1911 7.52701 17.1559 7.23948 17.208C6.95195 17.2602 6.68663 17.3973 6.47773 17.6016L6.42455 17.6548C6.25991 17.8196 6.0644 17.9504 5.84919 18.0396C5.63398 18.1288 5.40331 18.1747 5.17034 18.1747C4.93738 18.1747 4.7067 18.1288 4.49149 18.0396C4.27629 17.9504 4.08078 17.8196 3.91614 17.6548C3.75131 17.4901 3.62056 17.2946 3.53135 17.0794C3.44214 16.8642 3.39622 16.6335 3.39622 16.4006C3.39622 16.1676 3.44214 15.9369 3.53135 15.7217C3.62056 15.5065 3.75131 15.311 3.91614 15.1464L3.96932 15.0932C4.17366 14.8843 4.31073 14.619 4.36287 14.3314C4.415 14.0439 4.37981 13.7473 4.26182 13.48C4.14946 13.2178 3.9629 12.9943 3.72509 12.8368C3.48729 12.6793 3.20863 12.5948 2.92341 12.5936H2.77273C2.30257 12.5936 1.85167 12.4069 1.51922 12.0744C1.18677 11.742 1 11.2911 1 10.8209C1 10.3508 1.18677 9.89985 1.51922 9.5674C1.85167 9.23495 2.30257 9.04818 2.77273 9.04818H2.8525C3.14588 9.04132 3.43041 8.94636 3.66911 8.77564C3.9078 8.60491 4.08961 8.36633 4.19091 8.09091C4.3089 7.82357 4.34409 7.52701 4.29196 7.23948C4.23982 6.95195 4.10275 6.68663 3.89841 6.47773L3.84523 6.42455C3.68041 6.25991 3.54965 6.0644 3.46044 5.84919C3.37123 5.63398 3.32531 5.40331 3.32531 5.17034C3.32531 4.93738 3.37123 4.7067 3.46044 4.49149C3.54965 4.27629 3.68041 4.08078 3.84523 3.91614C4.00987 3.75131 4.20538 3.62056 4.42058 3.53135C4.63579 3.44214 4.86647 3.39622 5.09943 3.39622C5.3324 3.39622 5.56308 3.44214 5.77828 3.53135C5.99349 3.62056 6.189 3.75131 6.35364 3.91614L6.40682 3.96932C6.61572 4.17366 6.88104 4.31073 7.16857 4.36287C7.4561 4.415 7.75266 4.37981 8.02 4.26182H8.09091C8.35307 4.14946 8.57665 3.9629 8.73414 3.72509C8.89162 3.48729 8.97614 3.20863 8.97727 2.92341V2.77273C8.97727 2.30257 9.16404 1.85167 9.49649 1.51922C9.82895 1.18677 10.2798 1 10.75 1C11.2202 1 11.6711 1.18677 12.0035 1.51922C12.336 1.85167 12.5227 2.30257 12.5227 2.77273V2.8525C12.5239 3.13772 12.6084 3.41638 12.7659 3.65419C12.9234 3.89199 13.1469 4.07855 13.4091 4.19091C13.6764 4.3089 13.973 4.34409 14.2605 4.29196C14.5481 4.23982 14.8134 4.10275 15.0223 3.89841L15.0755 3.84523C15.2401 3.68041 15.4356 3.54965 15.6508 3.46044C15.866 3.37123 16.0967 3.32531 16.3297 3.32531C16.5626 3.32531 16.7933 3.37123 17.0085 3.46044C17.2237 3.54965 17.4192 3.68041 17.5839 3.84523C17.7487 4.00987 17.8794 4.20538 17.9687 4.42058C18.0579 4.63579 18.1038 4.86647 18.1038 5.09943C18.1038 5.3324 18.0579 5.56308 17.9687 5.77828C17.8794 5.99349 17.7487 6.189 17.5839 6.35364L17.5307 6.40682C17.3263 6.61572 17.1893 6.88104 17.1371 7.16857C17.085 7.4561 17.1202 7.75266 17.2382 8.02V8.09091C17.3505 8.35307 17.5371 8.57665 17.7749 8.73414C18.0127 8.89162 18.2914 8.97614 18.5766 8.97727H18.7273C19.1974 8.97727 19.6483 9.16404 19.9808 9.49649C20.3132 9.82895 20.5 10.2798 20.5 10.75C20.5 11.2202 20.3132 11.6711 19.9808 12.0035C19.6483 12.336 19.1974 12.5227 18.7273 12.5227H18.6475C18.3623 12.5239 18.0836 12.6084 17.8458 12.7659C17.608 12.9234 17.4214 13.1469 17.3091 13.4091Z" fill="#515151" fill-opacity="0.2" stroke="#515151" stroke-linecap="round" stroke-linejoin="round"/>
<circle cx="10.7362" cy="11.1942" r="2.15909" fill="#D9D9D9" stroke="#515151"/>
</svg>
