<svg width="24" height="25" viewBox="0 0 24 25" fill="none" xmlns="http://www.w3.org/2000/svg">
<path d="M23.4 15.217C23.5128 15.3066 23.5897 15.4338 23.6165 15.5753C23.6433 15.7169 23.6183 15.8634 23.546 15.988L21.12 20.163C21.0467 20.2865 20.9322 20.3801 20.7967 20.4275C20.6611 20.4749 20.5132 20.4729 20.379 20.422L17.354 19.211C16.7248 19.6962 16.0341 20.096 15.3 20.4L14.845 23.593C14.8201 23.7343 14.7465 23.8624 14.6368 23.9548C14.5271 24.0473 14.3884 24.0984 14.245 24.099H9.38599C9.24253 24.0984 9.10386 24.0473 8.99419 23.9548C8.88453 23.8624 8.81083 23.7343 8.78599 23.593L8.32899 20.4C7.59649 20.0942 6.90647 19.6953 6.27599 19.213L3.25199 20.422C3.11796 20.475 2.96932 20.478 2.83326 20.4305C2.69719 20.3829 2.5828 20.288 2.51099 20.163L0.0819885 15.988C0.00969926 15.8634 -0.0153289 15.7169 0.011478 15.5753C0.038285 15.4338 0.115137 15.3066 0.227988 15.217L2.78999 13.223C2.73707 12.8335 2.70868 12.4411 2.70499 12.048C2.70868 11.6549 2.73707 11.2625 2.78999 10.873L0.226988 8.88C0.114137 8.79043 0.037285 8.66324 0.010478 8.52168C-0.0163289 8.38011 0.00869926 8.23363 0.0809885 8.109L2.51099 3.934C2.58427 3.81052 2.69875 3.71685 2.83429 3.66948C2.96984 3.6221 3.11775 3.62406 3.25199 3.675L6.27599 4.886C6.90507 4.40192 7.59538 4.00313 8.32899 3.7L8.78499 0.506C8.80986 0.364541 8.8837 0.236337 8.99358 0.143831C9.10345 0.0513255 9.24236 0.000410895 9.38599 0L14.245 0C14.3891 0.00113761 14.5283 0.0521828 14.639 0.144443C14.7497 0.236704 14.8249 0.364475 14.852 0.506L15.307 3.7C16.0394 4.00548 16.7295 4.4041 17.36 4.886L20.385 3.675C20.519 3.62197 20.6677 3.61896 20.8037 3.66651C20.9398 3.71407 21.0542 3.80902 21.126 3.934L23.555 8.109C23.6273 8.23363 23.6523 8.38011 23.6255 8.52168C23.5987 8.66324 23.5218 8.79043 23.409 8.88L20.84 10.874C20.8929 11.2635 20.9213 11.6559 20.925 12.049C20.9213 12.4421 20.8929 12.8345 20.84 13.224L23.4 15.217ZM16.063 12.048C16.0697 11.2058 15.8261 10.3806 15.3632 9.67708C14.9002 8.97355 14.2386 8.4234 13.4625 8.09643C12.6863 7.76946 11.8305 7.68041 11.0037 7.84058C10.1769 8.00074 9.41623 8.40291 8.81831 8.99604C8.22039 9.58918 7.81213 10.3466 7.64533 11.1721C7.47853 11.9976 7.5607 12.8541 7.88143 13.6328C8.20215 14.4116 8.74697 15.0775 9.44676 15.5461C10.1466 16.0148 10.9698 16.265 11.812 16.265C12.3685 16.2682 12.9201 16.1615 13.4353 15.9512C13.9504 15.7408 14.4191 15.4309 14.8143 15.0392C15.2096 14.6475 15.5237 14.1817 15.7386 13.6684C15.9536 13.1551 16.0652 12.6045 16.067 12.048H16.063Z" fill="#515151"/>
</svg>
