<svg width="14" height="20" viewBox="0 0 14 20" fill="none" xmlns="http://www.w3.org/2000/svg">
<path d="M7 10.3623C8.8019 10.3623 10.4226 10.6618 11.585 11.5088C12.7157 12.3327 13.5 13.741 13.5 16.1738C13.4998 17.1753 12.8231 17.9964 11.5938 18.5938C10.3688 19.1889 8.6993 19.5 7 19.5C5.3007 19.5 3.63116 19.1889 2.40625 18.5938C1.17691 17.9964 0.500211 17.1753 0.5 16.1738C0.5 13.741 1.28433 12.3327 2.41504 11.5088C3.57739 10.6618 5.1981 10.3623 7 10.3623ZM7 0.5C8.95641 0.5 10.7002 2.27888 10.7002 4.34473C10.7002 6.41058 8.95642 8.18945 7 8.18945C5.04358 8.18945 3.2998 6.41058 3.2998 4.34473C3.29982 2.27888 5.04359 0.5 7 0.5Z" fill="#1B84FF" fill-opacity="0.2" stroke="#1B84FF"/>
</svg>
