<svg width="16" height="18" viewBox="0 0 16 18" fill="none" xmlns="http://www.w3.org/2000/svg">
<path d="M11.6043 6.92658L4.39551 2.76953" stroke="#515151" stroke-linecap="round" stroke-linejoin="round"/>
<path d="M15.2085 12.212V5.80419C15.2082 5.52327 15.1341 5.24736 14.9935 5.00415C14.8529 4.76094 14.6508 4.55897 14.4075 4.41851L8.80074 1.21462C8.55721 1.07402 8.28096 1 7.99976 1C7.71856 1 7.44232 1.07402 7.19879 1.21462L1.59199 4.41851C1.3487 4.55897 1.14663 4.76094 1.00605 5.00415C0.86546 5.24736 0.791304 5.52327 0.791016 5.80419V12.212C0.791304 12.4929 0.86546 12.7688 1.00605 13.012C1.14663 13.2552 1.3487 13.4572 1.59199 13.5976L7.19879 16.8015C7.44232 16.9421 7.71856 17.0162 7.99976 17.0162C8.28096 17.0162 8.55721 16.9421 8.80074 16.8015L14.4075 13.5976C14.6508 13.4572 14.8529 13.2552 14.9935 13.012C15.1341 12.7688 15.2082 12.4929 15.2085 12.212Z" fill="#515151" fill-opacity="0.2" stroke="#515151" stroke-linecap="round" stroke-linejoin="round"/>
<path d="M1.00684 4.97266L7.99932 9.01756L14.9918 4.97266" stroke="#515151" stroke-linecap="round" stroke-linejoin="round"/>
<path d="M8 17.0816V9.00781" stroke="#515151" stroke-linecap="round" stroke-linejoin="round"/>
</svg>
