<svg width="32" height="32" viewBox="0 0 32 32" fill="none" xmlns="http://www.w3.org/2000/svg">
<path d="M17.388 4.07868C17.7584 4.23498 17.9992 4.59796 17.9992 5V27C17.9992 27.4028 17.7575 27.7664 17.386 27.9222C17.0145 28.078 16.5858 27.9956 16.2984 27.7134L10.4456 21.9634H6.99927C5.34243 21.9634 3.99927 20.6202 3.99927 18.9634V12.9855C3.99927 11.3286 5.34243 9.98546 6.99927 9.98546H10.448L16.3015 4.2837C16.5895 4.00314 17.0175 3.92238 17.388 4.07868ZM23.4747 6.11836L23.6478 6.23596L23.8434 6.4051C23.9692 6.51816 24.1428 6.68194 24.3484 6.8954C24.759 7.32178 25.3002 7.95006 25.8402 8.77254C26.921 10.4188 28.0058 12.8587 28.0058 16.0081C28.0058 19.1577 26.9208 21.594 25.8394 23.2366C25.2992 24.0572 24.7578 24.6836 24.347 25.1086L24.0645 25.3905L23.691 25.7284L23.625 25.7826C23.192 26.1256 22.5616 26.0538 22.2186 25.621C21.9144 25.237 21.9375 24.6986 22.2488 24.3425L22.5072 24.1076C22.6004 24.0242 22.7394 23.894 22.909 23.7186C23.2488 23.367 23.7082 22.8368 24.169 22.137C25.0892 20.7388 26.0058 18.6791 26.0058 16.0081C26.0058 13.3369 25.0892 11.2729 24.1682 9.87018C23.7842 9.28521 23.401 8.81801 23.0871 8.47414L22.7487 8.12159L22.38 7.78276C21.9486 7.43864 21.8764 6.80902 22.2202 6.37716C22.526 5.99311 23.0569 5.89403 23.4747 6.11836ZM15.9992 7.37014L11.5523 11.7018C11.3656 11.8837 11.1153 11.9855 10.8546 11.9855H6.99927C6.44699 11.9855 5.99927 12.4332 5.99927 12.9855V18.9634C5.99927 19.5157 6.44699 19.9634 6.99927 19.9634H10.8546C11.1167 19.9634 11.3684 20.0664 11.5554 20.25L15.9992 24.6158V7.37014ZM21.4763 10.1182L21.6754 10.2576L21.9427 10.5091L22.0508 10.6224C22.2778 10.8672 22.5706 11.2259 22.8606 11.7029C23.4436 12.6619 24.0078 14.0888 24.0078 15.9971C24.0078 17.9054 23.4436 19.3337 22.861 20.2942C22.5714 20.7718 22.2786 21.1314 22.0518 21.3768L21.8487 21.5853L21.7081 21.7154L21.6286 21.7828L21.5016 21.8404C21.2369 21.9465 20.6177 22.1193 20.2232 21.6258C19.9182 21.2443 19.9379 20.7081 20.245 20.3506L20.5139 20.0921L20.5828 20.0196C20.7318 19.8585 20.94 19.605 21.151 19.2569C21.5702 18.566 22.0078 17.4922 22.0078 15.9971C22.0078 14.5021 21.5702 13.4304 21.1516 12.7418C20.9934 12.4816 20.8368 12.2746 20.7057 12.1197L20.5152 11.9099L20.3782 11.7799C19.9488 11.4375 19.8782 10.8094 20.2218 10.3775C20.5274 9.9933 21.0584 9.89401 21.4763 10.1182Z" fill="white"/>
</svg>
