<svg width="29" height="27" viewBox="0 0 29 27" fill="none" xmlns="http://www.w3.org/2000/svg">
<path d="M14.0244 1.08203C14.1741 0.621373 14.8259 0.621378 14.9756 1.08203L17.5049 8.86426C17.7057 9.48218 18.281 9.90121 18.9307 9.90137H27.1152C27.5992 9.90178 27.7999 10.5211 27.4082 10.8057L20.7881 15.6162C20.2624 15.9982 20.0424 16.6749 20.2432 17.293L22.7715 25.0762C22.9211 25.5366 22.3947 25.9197 22.0029 25.6357L15.3818 20.8252C14.8561 20.4432 14.1439 20.4432 13.6182 20.8252L6.99707 25.6357C6.60527 25.9197 6.07891 25.5366 6.22852 25.0762L8.75684 17.293C8.95764 16.6749 8.73764 15.9982 8.21191 15.6162L1.5918 10.8057C1.20007 10.5211 1.40076 9.90178 1.88477 9.90137H10.0693C10.719 9.90121 11.2943 9.48218 11.4951 8.86426L14.0244 1.08203Z" fill="#FFDE05" stroke="#FFDE05"/>
</svg>
